# xmcd CD database file
#
# Track frame offsets:
#	150
#	13497
#	29356
#	49666
#	70854
#	91701
#	121272
#	138444
#	156854
#	176400
#
# Disc length: 2604 seconds
#
# Revision: 2
# Processed by: cddbd v1.5.2PL0 Copyright (c) Steve Scherf et al.
# Submitted via: CDex 2.17
#
DISCID=7e0a2a0a
DTITLE=Stefanie Fix - Crooked Smile
DYEAR=2007
DGENRE=Country
TTITLE0=Let the Sun Shine Thru You
TTITLE1=[Baby] I Know You're There
TTITLE2=Far From You
TTITLE3=Dancing with Ghosts
TTITLE4=Holy Shit
TTITLE5=Don't Go, Don't Stay
TTITLE6=No Reason Now
TTITLE7=Crooked Smile
TTITLE8=Walking Shoes
TTITLE9=The Secret I Keep
EXTD=YEAR: 2007
EXTT0=
EXTT1=
EXTT2=
EXTT3=
EXTT4=
EXTT5=
EXTT6=
EXTT7=
EXTT8=
EXTT9=
PLAYORDER=
